STARTFONT 2.1
COMMENT  
COMMENT  WARNING:  This bdf file was generated from an X server using
COMMENT  xbdfdump.  The resulting font is subject to the same copyright,
COMMENT  license, and trademark restrictions as the original font.  The
COMMENT  author and distributors of xbdfdump disclaim all liability for
COMMENT  misuse of the program or its output.
COMMENT  
FONT -phaisarn-angsana-medium-i-normal--14-140-75-75-p-75-tis620-0
SIZE 14 75 75
FONTBOUNDINGBOX 33 39 -10 -12
STARTPROPERTIES 27
FOUNDRY "Phaisarn"
FAMILY_NAME "Angsana"
WEIGHT_NAME "medium"
SLANT "i"
SETWIDTH_NAME "normal"
ADD_STYLE_NAME ""
PIXEL_SIZE 14
POINT_SIZE 140
RESOLUTION_X 75
RESOLUTION_Y 75
SPACING "p"
AVERAGE_WIDTH 75
CHARSET_REGISTRY "tis620"
CHARSET_ENCODING "0"
COPYRIGHT "Angsana by Pt-TITech 1997"
RAW_PIXELSIZE 1000
RAW_POINTSIZE 0
RAW_ASCENT 0
RAW_DESCENT 0
RAW_AVERAGE_WIDTH 2994
FACE_NAME "Angsana Inclined"
WEIGHT 10
X_HEIGHT 8
QUAD_WIDTH 12
FONT_ASCENT 25
FONT_DESCENT 10
_XMBDFED_INFO "Edited with xmbdfed 4.5."
ENDPROPERTIES
CHARS 195
STARTCHAR space
ENCODING 32
SWIDTH 342 0
DWIDTH 5 0
BBX 0 0 0 0
BITMAP
ENDCHAR
STARTCHAR exclam
ENCODING 33
SWIDTH 411 0
DWIDTH 6 0
BBX 5 13 1 0
BITMAP
08
18
10
10
30
20
20
20
20
40
00
C0
C0
ENDCHAR
STARTCHAR quotedbl
ENCODING 34
SWIDTH 548 0
DWIDTH 8 0
BBX 6 6 3 7
BITMAP
4C
CC
C8
88
88
88
ENDCHAR
STARTCHAR numbersign
ENCODING 35
SWIDTH 617 0
DWIDTH 9 0
BBX 9 13 1 0
BITMAP
1100
1100
1100
1100
FF80
2200
2200
2200
FF80
4200
4400
4400
4400
ENDCHAR
STARTCHAR dollar
ENCODING 36
SWIDTH 617 0
DWIDTH 9 0
BBX 8 14 1 -1
BITMAP
0E
17
25
25
34
18
1C
0E
12
52
92
94
78
20
ENDCHAR
STARTCHAR percent
ENCODING 37
SWIDTH 1097 0
DWIDTH 16 0
BBX 14 14 1 -1
BITMAP
1804
6408
4410
C420
8C40
8880
5918
6224
0424
0844
1044
2048
4048
8030
ENDCHAR
STARTCHAR ampersand
ENCODING 38
SWIDTH 1028 0
DWIDTH 15 0
BBX 13 13 1 0
BITMAP
0180
0240
0640
0640
0680
0700
1E78
6360
C340
C140
C180
6180
3E78
ENDCHAR
STARTCHAR apostrophe
ENCODING 39
SWIDTH 274 0
DWIDTH 4 0
BBX 2 6 3 7
BITMAP
40
C0
C0
80
80
80
ENDCHAR
STARTCHAR parenleft
ENCODING 40
SWIDTH 411 0
DWIDTH 6 0
BBX 7 17 1 -4
BITMAP
02
04
08
10
20
60
40
C0
C0
C0
80
80
80
80
40
40
20
ENDCHAR
STARTCHAR parenright
ENCODING 41
SWIDTH 411 0
DWIDTH 6 0
BBX 7 17 -2 -4
BITMAP
04
04
02
02
02
02
02
06
06
06
04
0C
08
10
20
40
80
ENDCHAR
STARTCHAR asterisk
ENCODING 42
SWIDTH 617 0
DWIDTH 9 0
BBX 6 8 3 5
BITMAP
30
94
DC
30
DC
94
30
30
ENDCHAR
STARTCHAR plus
ENCODING 43
SWIDTH 891 0
DWIDTH 13 0
BBX 10 10 2 1
BITMAP
0800
0800
0800
0800
FFC0
0800
0800
0800
0800
0800
ENDCHAR
STARTCHAR comma
ENCODING 44
SWIDTH 342 0
DWIDTH 5 0
BBX 3 4 0 -2
BITMAP
60
60
60
80
ENDCHAR
STARTCHAR minus
ENCODING 45
SWIDTH 411 0
DWIDTH 6 0
BBX 5 1 1 4
BITMAP
F8
ENDCHAR
STARTCHAR period
ENCODING 46
SWIDTH 342 0
DWIDTH 5 0
BBX 2 2 1 0
BITMAP
C0
C0
ENDCHAR
STARTCHAR slash
ENCODING 47
SWIDTH 342 0
DWIDTH 5 0
BBX 8 13 -1 0
BITMAP
01
02
02
04
04
08
08
10
20
20
40
40
80
ENDCHAR
STARTCHAR 0
ENCODING 48
SWIDTH 617 0
DWIDTH 9 0
BBX 8 13 1 0
BITMAP
0E
11
21
61
41
C1
C3
C3
82
86
84
48
70
ENDCHAR
STARTCHAR 1
ENCODING 49
SWIDTH 617 0
DWIDTH 9 0
BBX 7 13 1 0
BITMAP
1E
06
04
0C
0C
08
18
18
10
10
30
30
F8
ENDCHAR
STARTCHAR 2
ENCODING 50
SWIDTH 617 0
DWIDTH 9 0
BBX 9 13 0 0
BITMAP
0600
1F00
3380
0180
0180
0300
0200
0400
0800
1000
2200
7E00
FC00
ENDCHAR
STARTCHAR 3
ENCODING 51
SWIDTH 617 0
DWIDTH 9 0
BBX 8 13 1 0
BITMAP
1E
17
23
02
04
38
0C
06
06
04
04
C8
F0
ENDCHAR
STARTCHAR 4
ENCODING 52
SWIDTH 617 0
DWIDTH 9 0
BBX 9 13 1 0
BITMAP
0080
0180
0300
0500
0B00
1200
2200
2200
4600
FF00
0400
0C00
0800
ENDCHAR
STARTCHAR 5
ENCODING 53
SWIDTH 617 0
DWIDTH 9 0
BBX 8 13 1 0
BITMAP
0F
0F
10
10
3C
0C
02
02
02
02
04
CC
F0
ENDCHAR
STARTCHAR 6
ENCODING 54
SWIDTH 617 0
DWIDTH 9 0
BBX 9 13 1 0
BITMAP
0180
0600
1800
3000
3000
7C00
4600
C300
8300
8300
8600
4C00
3000
ENDCHAR
STARTCHAR 7
ENCODING 55
SWIDTH 617 0
DWIDTH 9 0
BBX 8 13 2 0
BITMAP
7F
7E
82
04
04
08
08
10
20
20
40
40
80
ENDCHAR
STARTCHAR 8
ENCODING 56
SWIDTH 617 0
DWIDTH 9 0
BBX 8 13 1 0
BITMAP
0E
11
21
21
33
1C
2C
46
82
82
82
44
38
ENDCHAR
STARTCHAR 9
ENCODING 57
SWIDTH 617 0
DWIDTH 9 0
BBX 8 13 1 0
BITMAP
0E
19
31
31
61
61
63
32
1E
04
0C
10
E0
ENDCHAR
STARTCHAR colon
ENCODING 58
SWIDTH 411 0
DWIDTH 6 0
BBX 4 8 1 0
BITMAP
30
30
00
00
00
00
C0
C0
ENDCHAR
STARTCHAR semicolon
ENCODING 59
SWIDTH 411 0
DWIDTH 6 0
BBX 5 10 0 -2
BITMAP
18
18
00
00
00
00
40
60
20
C0
ENDCHAR
STARTCHAR less
ENCODING 60
SWIDTH 891 0
DWIDTH 13 0
BBX 10 9 1 2
BITMAP
0040
0380
0C00
3000
C000
3000
0C00
0380
0040
ENDCHAR
STARTCHAR equal
ENCODING 61
SWIDTH 891 0
DWIDTH 13 0
BBX 10 4 2 4
BITMAP
FFC0
0000
0000
FFC0
ENDCHAR
STARTCHAR greater
ENCODING 62
SWIDTH 891 0
DWIDTH 13 0
BBX 10 9 1 2
BITMAP
8000
7000
0C00
0300
00C0
0380
0C00
7000
8000
ENDCHAR
STARTCHAR question
ENCODING 63
SWIDTH 617 0
DWIDTH 9 0
BBX 7 13 2 0
BITMAP
18
24
66
06
0C
08
10
20
20
40
00
C0
C0
ENDCHAR
STARTCHAR at
ENCODING 64
SWIDTH 1165 0
DWIDTH 17 0
BBX 16 17 1 -4
BITMAP
01E0
0618
1804
2004
40D2
4122
C222
8622
8422
8C44
8CC4
8F49
4671
4002
300C
0C10
03E0
ENDCHAR
STARTCHAR A
ENCODING 65
SWIDTH 822 0
DWIDTH 12 0
BBX 11 13 -1 0
BITMAP
0020
0060
0060
00E0
0140
0240
02C0
04C0
0FC0
10C0
20C0
60C0
F3E0
ENDCHAR
STARTCHAR B
ENCODING 66
SWIDTH 822 0
DWIDTH 12 0
BBX 11 13 0 0
BITMAP
1F00
0CC0
0C60
0860
08C0
19C0
1F00
1180
30C0
30C0
2180
6700
FE00
ENDCHAR
STARTCHAR C
ENCODING 67
SWIDTH 891 0
DWIDTH 13 0
BBX 12 13 1 0
BITMAP
03D0
0C30
1010
3010
6000
6000
C000
C000
C000
C000
6040
3180
1E00
ENDCHAR
STARTCHAR D
ENCODING 68
SWIDTH 960 0
DWIDTH 14 0
BBX 13 13 0 0
BITMAP
1F80
0C60
0C30
0830
0818
1818
1818
1018
3030
3030
2060
6180
FE00
ENDCHAR
STARTCHAR E
ENCODING 69
SWIDTH 822 0
DWIDTH 12 0
BBX 12 13 0 0
BITMAP
1FF0
0C10
0C10
0C00
0840
1880
1F80
1880
1080
3020
3040
20C0
FFC0
ENDCHAR
STARTCHAR F
ENCODING 70
SWIDTH 822 0
DWIDTH 12 0
BBX 13 13 0 0
BITMAP
1FF8
0408
0C08
0C00
0C40
1880
1F80
1880
1080
3000
3000
3000
F800
ENDCHAR
STARTCHAR G
ENCODING 71
SWIDTH 960 0
DWIDTH 14 0
BBX 12 13 1 0
BITMAP
03D0
0C30
1010
2010
6000
4000
C1F0
C060
C040
C0C0
60C0
3080
1F00
ENDCHAR
STARTCHAR H
ENCODING 72
SWIDTH 960 0
DWIDTH 14 0
BBX 16 13 0 0
BITMAP
1F1F
060C
040C
0C0C
0C08
0818
1FF8
1810
1030
3030
3020
3060
F8F8
ENDCHAR
STARTCHAR I
ENCODING 73
SWIDTH 411 0
DWIDTH 6 0
BBX 8 13 -1 0
BITMAP
1F
06
0C
0C
0C
08
18
18
10
30
30
30
F8
ENDCHAR
STARTCHAR J
ENCODING 74
SWIDTH 548 0
DWIDTH 8 0
BBX 11 13 -1 0
BITMAP
03E0
0180
0180
0180
0100
0300
0300
0200
0600
0600
CC00
D800
7000
ENDCHAR
STARTCHAR K
ENCODING 75
SWIDTH 891 0
DWIDTH 13 0
BBX 14 13 0 0
BITMAP
1F3C
0E10
0C20
0CC0
0900
0A00
1E00
1B00
1100
3180
30C0
30E0
F9F0
ENDCHAR
STARTCHAR L
ENCODING 76
SWIDTH 754 0
DWIDTH 11 0
BBX 11 13 -1 0
BITMAP
1F00
0E00
0C00
0C00
0800
0800
1800
1800
1000
3020
3040
3080
FF80
ENDCHAR
STARTCHAR M
ENCODING 77
SWIDTH 1097 0
DWIDTH 16 0
BBX 18 13 -1 0
BITMAP
1E01C0
060300
060700
0E0F00
0E0A00
0A1600
122600
122400
134C00
238C00
238800
231800
F27E00
ENDCHAR
STARTCHAR N
ENCODING 78
SWIDTH 891 0
DWIDTH 13 0
BBX 15 13 0 0
BITMAP
1C1E
0E08
0608
0A08
0B08
0B10
1190
1190
10A0
20E0
20E0
2040
F040
ENDCHAR
STARTCHAR O
ENCODING 79
SWIDTH 960 0
DWIDTH 14 0
BBX 13 13 1 0
BITMAP
03C0
0470
1810
3018
6018
6018
6038
C030
C030
C060
60C0
7180
1E00
ENDCHAR
STARTCHAR P
ENCODING 80
SWIDTH 822 0
DWIDTH 12 0
BBX 12 13 0 0
BITMAP
1FC0
0C60
0C30
0C30
0820
18C0
1F00
1000
1000
3000
3000
7000
F800
ENDCHAR
STARTCHAR Q
ENCODING 81
SWIDTH 960 0
DWIDTH 14 0
BBX 13 17 1 -4
BITMAP
03C0
0470
1830
3018
2018
6018
6038
C030
C030
C060
4060
60C0
3700
1800
2010
7C60
9F80
ENDCHAR
STARTCHAR R
ENCODING 82
SWIDTH 822 0
DWIDTH 12 0
BBX 11 13 0 0
BITMAP
1F80
0CC0
0C60
0860
08E0
19C0
1F00
1300
3300
3100
2180
6180
F8E0
ENDCHAR
STARTCHAR S
ENCODING 83
SWIDTH 617 0
DWIDTH 9 0
BBX 11 13 0 0
BITMAP
0720
08C0
1840
1840
1C00
0C00
0600
0300
0380
4180
4180
4180
DC80
ENDCHAR
STARTCHAR T
ENCODING 84
SWIDTH 754 0
DWIDTH 11 0
BBX 11 13 1 0
BITMAP
7FE0
4620
4420
0C00
0C00
0800
1800
1800
1000
3000
3000
3000
FC00
ENDCHAR
STARTCHAR U
ENCODING 85
SWIDTH 960 0
DWIDTH 14 0
BBX 13 13 2 0
BITMAP
FC78
3030
3020
2020
2020
6020
6040
C040
C040
C080
C080
6300
1C00
ENDCHAR
STARTCHAR V
ENCODING 86
SWIDTH 822 0
DWIDTH 12 0
BBX 11 13 2 0
BITMAP
F9E0
60C0
6080
6100
6200
6200
6400
6800
5000
5000
6000
4000
8000
ENDCHAR
STARTCHAR W
ENCODING 87
SWIDTH 1097 0
DWIDTH 16 0
BBX 15 13 2 0
BITMAP
FFDE
618C
6108
6310
6510
4720
4B20
5340
5380
6300
C300
8200
8200
ENDCHAR
STARTCHAR X
ENCODING 88
SWIDTH 822 0
DWIDTH 12 0
BBX 15 13 -1 0
BITMAP
0F1E
0608
0210
0320
0340
0180
0180
0380
0580
0880
10C0
20C0
F1F0
ENDCHAR
STARTCHAR Y
ENCODING 89
SWIDTH 754 0
DWIDTH 11 0
BBX 11 13 2 0
BITMAP
F9E0
30C0
3080
3100
1200
1C00
1800
1800
1800
1000
3000
3000
F800
ENDCHAR
STARTCHAR Z
ENCODING 90
SWIDTH 754 0
DWIDTH 11 0
BBX 11 13 0 0
BITMAP
1FE0
2040
20C0
0180
0300
0600
0400
0C00
1800
3040
6040
6180
FF80
ENDCHAR
STARTCHAR bracketleft
ENCODING 91
SWIDTH 480 0
DWIDTH 7 0
BBX 9 17 0 -4
BITMAP
0780
0400
0C00
0800
0800
1800
1000
1000
3000
3000
2000
2000
6000
4000
4000
C000
F000
ENDCHAR
STARTCHAR backslash
ENCODING 92
SWIDTH 342 0
DWIDTH 5 0
BBX 2 13 2 0
BITMAP
80
80
80
80
80
40
40
40
40
40
40
40
40
ENDCHAR
STARTCHAR bracketright
ENCODING 93
SWIDTH 480 0
DWIDTH 7 0
BBX 9 17 -2 -4
BITMAP
0780
0180
0100
0100
0300
0200
0200
0600
0600
0400
0400
0C00
0800
0800
1800
1000
F000
ENDCHAR
STARTCHAR asciicircum
ENCODING 94
SWIDTH 548 0
DWIDTH 8 0
BBX 8 7 1 6
BITMAP
08
18
24
24
42
42
81
ENDCHAR
STARTCHAR underscore
ENCODING 95
SWIDTH 617 0
DWIDTH 9 0
BBX 10 1 0 -4
BITMAP
FFC0
ENDCHAR
STARTCHAR grave
ENCODING 96
SWIDTH 411 0
DWIDTH 6 0
BBX 3 3 3 10
BITMAP
C0
60
20
ENDCHAR
STARTCHAR a
ENCODING 97
SWIDTH 617 0
DWIDTH 9 0
BBX 9 8 0 0
BITMAP
0680
1980
2100
6100
4300
C600
CA80
7300
ENDCHAR
STARTCHAR b
ENCODING 98
SWIDTH 617 0
DWIDTH 9 0
BBX 8 13 1 0
BITMAP
70
10
30
20
20
2E
73
43
43
C2
84
88
70
ENDCHAR
STARTCHAR c
ENCODING 99
SWIDTH 548 0
DWIDTH 8 0
BBX 7 8 1 0
BITMAP
0C
12
22
60
C0
C0
44
38
ENDCHAR
STARTCHAR d
ENCODING 100
SWIDTH 617 0
DWIDTH 9 0
BBX 10 13 0 0
BITMAP
01C0
00C0
0080
0080
0080
0F80
1100
2100
6300
C200
C600
CA80
7700
ENDCHAR
STARTCHAR e
ENCODING 101
SWIDTH 548 0
DWIDTH 8 0
BBX 7 8 1 0
BITMAP
0C
12
22
4C
F0
C0
44
38
ENDCHAR
STARTCHAR f
ENCODING 102
SWIDTH 342 0
DWIDTH 5 0
BBX 12 17 -3 -4
BITMAP
0060
00B0
0100
0200
0200
0F00
0600
0400
0400
0400
0C00
0800
0800
1000
1000
A000
4000
ENDCHAR
STARTCHAR g
ENCODING 103
SWIDTH 617 0
DWIDTH 9 0
BBX 11 12 -1 -4
BITMAP
1FE0
3180
3180
3180
1E00
0800
3000
3F00
4380
8080
C300
3C00
ENDCHAR
STARTCHAR h
ENCODING 104
SWIDTH 617 0
DWIDTH 9 0
BBX 8 13 0 0
BITMAP
38
10
10
30
20
27
2B
73
66
46
C4
C5
86
ENDCHAR
STARTCHAR i
ENCODING 105
SWIDTH 342 0
DWIDTH 5 0
BBX 4 12 1 0
BITMAP
30
30
00
00
E0
60
40
40
C0
80
A0
C0
ENDCHAR
STARTCHAR j
ENCODING 106
SWIDTH 342 0
DWIDTH 5 0
BBX 9 16 -3 -4
BITMAP
0300
0300
0000
0000
0D80
0600
0400
0400
0C00
0800
0800
1800
1000
1000
A000
C000
ENDCHAR
STARTCHAR k
ENCODING 107
SWIDTH 548 0
DWIDTH 8 0
BBX 9 13 0 0
BITMAP
3800
1800
1000
1000
3000
3780
2200
2400
7800
6800
4800
CD00
8600
ENDCHAR
STARTCHAR l
ENCODING 108
SWIDTH 342 0
DWIDTH 5 0
BBX 5 13 1 0
BITMAP
38
18
10
10
30
20
20
60
40
40
C0
F0
C0
ENDCHAR
STARTCHAR m
ENCODING 109
SWIDTH 960 0
DWIDTH 14 0
BBX 13 8 0 0
BITMAP
7338
3D58
2998
73B0
6330
4220
C628
8670
ENDCHAR
STARTCHAR n
ENCODING 110
SWIDTH 617 0
DWIDTH 9 0
BBX 8 8 0 0
BITMAP
77
29
2B
72
62
46
C7
86
ENDCHAR
STARTCHAR o
ENCODING 111
SWIDTH 617 0
DWIDTH 9 0
BBX 8 8 1 0
BITMAP
0C
12
63
63
C6
C6
48
30
ENDCHAR
STARTCHAR p
ENCODING 112
SWIDTH 617 0
DWIDTH 9 0
BBX 11 12 -2 -4
BITMAP
1DC0
0A60
0C60
0860
18C0
1080
1100
3E00
2000
2000
6000
F000
ENDCHAR
STARTCHAR q
ENCODING 113
SWIDTH 617 0
DWIDTH 9 0
BBX 8 12 0 -4
BITMAP
0D
13
22
62
C2
C6
CC
74
04
0C
08
3C
ENDCHAR
STARTCHAR r
ENCODING 114
SWIDTH 480 0
DWIDTH 7 0
BBX 7 8 0 0
BITMAP
76
2A
30
70
60
40
C0
80
ENDCHAR
STARTCHAR s
ENCODING 115
SWIDTH 480 0
DWIDTH 7 0
BBX 7 8 0 0
BITMAP
26
22
38
1C
84
84
C8
B8
ENDCHAR
STARTCHAR t
ENCODING 116
SWIDTH 342 0
DWIDTH 5 0
BBX 5 11 1 0
BITMAP
08
10
30
78
30
20
60
60
40
D0
E0
ENDCHAR
STARTCHAR u
ENCODING 117
SWIDTH 617 0
DWIDTH 9 0
BBX 8 8 1 0
BITMAP
63
E3
62
46
4E
CC
95
E6
ENDCHAR
STARTCHAR v
ENCODING 118
SWIDTH 548 0
DWIDTH 8 0
BBX 8 8 0 0
BITMAP
E3
31
31
12
14
14
18
10
ENDCHAR
STARTCHAR w
ENCODING 119
SWIDTH 891 0
DWIDTH 13 0
BBX 12 8 0 0
BITMAP
E090
3190
1390
1390
14A0
18A0
10C0
1080
ENDCHAR
STARTCHAR x
ENCODING 120
SWIDTH 548 0
DWIDTH 8 0
BBX 9 8 -1 0
BITMAP
7180
1B80
0E00
0800
0C00
1480
A700
C600
ENDCHAR
STARTCHAR y
ENCODING 121
SWIDTH 548 0
DWIDTH 8 0
BBX 9 12 -1 -4
BITMAP
7180
1880
1880
1900
1B00
1A00
0C00
0800
1800
2000
E000
8000
ENDCHAR
STARTCHAR z
ENCODING 122
SWIDTH 480 0
DWIDTH 7 0
BBX 8 8 0 0
BITMAP
3F
62
04
08
10
20
42
FC
ENDCHAR
STARTCHAR braceleft
ENCODING 123
SWIDTH 548 0
DWIDTH 8 0
BBX 8 17 1 -4
BITMAP
03
04
08
18
18
18
10
20
C0
60
20
60
60
C0
80
80
60
ENDCHAR
STARTCHAR bar
ENCODING 124
SWIDTH 342 0
DWIDTH 5 0
BBX 1 17 2 -4
BITMAP
80
80
80
80
80
80
80
80
80
80
80
80
80
80
80
80
80
ENDCHAR
STARTCHAR braceright
ENCODING 125
SWIDTH 548 0
DWIDTH 8 0
BBX 7 17 -1 -4
BITMAP
04
02
02
02
04
04
04
04
02
0C
18
30
30
30
20
40
80
ENDCHAR
STARTCHAR asciitilde
ENCODING 126
SWIDTH 685 0
DWIDTH 10 0
BBX 10 2 0 4
BITMAP
7840
8780
ENDCHAR
STARTCHAR C001122
ENCODING 133
SWIDTH 1165 0
DWIDTH 17 0
BBX 12 2 2 0
BITMAP
C630
C630
ENDCHAR
STARTCHAR C001107
ENCODING 145
SWIDTH 411 0
DWIDTH 6 0
BBX 3 4 4 9
BITMAP
20
40
C0
C0
ENDCHAR
STARTCHAR C001110
ENCODING 146
SWIDTH 411 0
DWIDTH 6 0
BBX 2 4 4 9
BITMAP
C0
C0
40
80
ENDCHAR
STARTCHAR C001113
ENCODING 147
SWIDTH 754 0
DWIDTH 11 0
BBX 7 4 4 9
BITMAP
22
44
CC
CC
ENDCHAR
STARTCHAR C001114
ENCODING 148
SWIDTH 754 0
DWIDTH 11 0
BBX 6 4 4 9
BITMAP
CC
CC
4C
98
ENDCHAR
STARTCHAR C001121
ENCODING 149
SWIDTH 480 0
DWIDTH 7 0
BBX 5 5 2 4
BITMAP
70
F8
F8
F8
70
ENDCHAR
STARTCHAR C001103
ENCODING 150
SWIDTH 617 0
DWIDTH 9 0
BBX 10 1 0 4
BITMAP
FFC0
ENDCHAR
STARTCHAR C001104
ENCODING 151
SWIDTH 1165 0
DWIDTH 17 0
BBX 17 1 0 4
BITMAP
FFFF80
ENDCHAR
STARTCHAR exclamdown
ENCODING 161
SWIDTH 822 0
DWIDTH 12 0
BBX 9 12 1 0
BITMAP
0E00
3300
4180
F880
6180
6180
4180
4100
C100
C100
C300
C200
ENDCHAR
STARTCHAR cent
ENCODING 162
SWIDTH 822 0
DWIDTH 12 0
BBX 10 12 1 0
BITMAP
3C40
4CC0
84C0
F4C0
9C80
6C80
0C80
0980
0980
1980
0B00
0600
ENDCHAR
STARTCHAR sterling
ENCODING 163
SWIDTH 891 0
DWIDTH 13 0
BBX 11 12 1 0
BITMAP
2420
7E60
5660
8660
B440
9440
6CC0
0CC0
0CC0
0C80
0480
0700
ENDCHAR
STARTCHAR currency
ENCODING 164
SWIDTH 822 0
DWIDTH 12 0
BBX 9 12 1 0
BITMAP
1E00
2300
4180
9980
A580
ED80
7100
6300
4300
4300
C200
C200
ENDCHAR
STARTCHAR yen
ENCODING 165
SWIDTH 822 0
DWIDTH 12 0
BBX 9 12 1 0
BITMAP
1900
2B80
4580
4080
9880
A480
ED80
7180
4100
C100
C100
C100
ENDCHAR
STARTCHAR brokenbar
ENCODING 166
SWIDTH 960 0
DWIDTH 14 0
BBX 12 12 1 0
BITMAP
2710
5B10
CB10
8330
9630
9620
6620
0620
1F20
2CA0
2C60
1860
ENDCHAR
STARTCHAR section
ENCODING 167
SWIDTH 617 0
DWIDTH 9 0
BBX 7 12 1 0
BITMAP
0E
12
12
0E
06
86
84
44
6C
3C
1C
1C
ENDCHAR
STARTCHAR diaeresis
ENCODING 168
SWIDTH 685 0
DWIDTH 10 0
BBX 7 12 2 0
BITMAP
38
4C
86
66
B6
F6
36
24
24
24
28
30
ENDCHAR
STARTCHAR copyright
ENCODING 169
SWIDTH 822 0
DWIDTH 12 0
BBX 9 12 2 0
BITMAP
3C00
4700
8300
6180
B100
F100
2100
2300
2F00
7700
6500
6600
ENDCHAR
STARTCHAR ordfeminine
ENCODING 170
SWIDTH 822 0
DWIDTH 12 0
BBX 11 12 2 0
BITMAP
38E0
4CC0
8D80
AE00
AF00
4B00
1B00
1B00
1A00
1200
1400
7C00
ENDCHAR
STARTCHAR guillemotleft
ENCODING 171
SWIDTH 891 0
DWIDTH 13 0
BBX 12 12 1 0
BITMAP
1430
3E30
5660
8EC0
8780
B6C0
F4C0
04C0
0C80
0D80
0900
1F00
ENDCHAR
STARTCHAR notsign
ENCODING 172
SWIDTH 1028 0
DWIDTH 15 0
BBX 13 12 1 0
BITMAP
0E08
3318
2198
4198
7990
3110
2110
6130
6730
9BB0
9A60
6460
ENDCHAR
STARTCHAR hyphen
ENCODING 173
SWIDTH 1028 0
DWIDTH 15 0
BBX 14 17 1 -5
BITMAP
1F04
2388
4198
8198
F998
6190
6190
6110
7310
CB30
4920
30C0
0000
0320
0720
0640
0380
ENDCHAR
STARTCHAR registered
ENCODING 174
SWIDTH 822 0
DWIDTH 12 0
BBX 11 18 0 -6
BITMAP
0780
08C0
1060
1060
3C20
1860
1860
1060
1040
F040
90C0
66C0
04C0
3880
2C80
4A80
3380
0180
ENDCHAR
STARTCHAR macron
ENCODING 175
SWIDTH 822 0
DWIDTH 12 0
BBX 10 18 1 -6
BITMAP
0F00
1980
20C0
3C40
1040
10C0
30C0
30C0
7080
A080
A080
4580
0980
7180
9100
B500
4B00
0300
ENDCHAR
STARTCHAR degree
ENCODING 176
SWIDTH 754 0
DWIDTH 11 0
BBX 11 17 -1 -5
BITMAP
07A0
08E0
1700
1980
0C80
16C0
1E80
0680
0680
0480
0580
0700
1300
7500
9B00
6900
0F00
ENDCHAR
STARTCHAR plusminus
ENCODING 177
SWIDTH 1028 0
DWIDTH 15 0
BBX 13 12 1 0
BITMAP
2430
5E78
5698
8698
9698
9518
6510
0E10
0E30
0C30
0C30
0820
ENDCHAR
STARTCHAR twosuperior
ENCODING 178
SWIDTH 1028 0
DWIDTH 15 0
BBX 13 12 1 0
BITMAP
1188
3B88
4CD8
40D8
8C98
9690
9690
C890
7390
CDF0
C930
C720
ENDCHAR
STARTCHAR threesuperior
ENCODING 179
SWIDTH 1097 0
DWIDTH 16 0
BBX 13 12 1 0
BITMAP
1C08
6718
4318
8310
FB10
6310
6230
6230
7AE0
CF30
4E50
3420
ENDCHAR
STARTCHAR acute
ENCODING 180
SWIDTH 822 0
DWIDTH 12 0
BBX 9 12 1 0
BITMAP
0E00
3100
6180
4180
8D80
9380
D300
4D00
7100
6100
C100
C100
ENDCHAR
STARTCHAR mu
ENCODING 181
SWIDTH 822 0
DWIDTH 12 0
BBX 9 12 1 0
BITMAP
0B00
3F80
4580
4080
8980
9580
9580
C900
7100
E100
C300
C300
ENDCHAR
STARTCHAR paragraph
ENCODING 182
SWIDTH 754 0
DWIDTH 11 0
BBX 9 12 1 0
BITMAP
1E00
2300
4180
4180
F980
6180
6180
6100
6100
FB00
4B00
3200
ENDCHAR
STARTCHAR periodcentered
ENCODING 183
SWIDTH 891 0
DWIDTH 13 0
BBX 10 12 2 0
BITMAP
7180
92C0
F4C0
74C0
34C0
2880
2980
2980
3180
6180
6100
6100
ENDCHAR
STARTCHAR cedilla
ENCODING 184
SWIDTH 754 0
DWIDTH 11 0
BBX 10 12 1 0
BITMAP
3C40
5780
D000
3C00
3300
3300
3300
3200
2200
2600
6600
FC00
ENDCHAR
STARTCHAR onesuperior
ENCODING 185
SWIDTH 891 0
DWIDTH 13 0
BBX 11 12 2 0
BITMAP
6060
B0C0
B0C0
70C0
20C0
2080
2080
6180
4700
5A80
6280
4300
ENDCHAR
STARTCHAR masculine
ENCODING 186
SWIDTH 891 0
DWIDTH 13 0
BBX 11 12 2 0
BITMAP
7060
9060
9860
7040
1040
3040
30C0
30C0
30C0
2080
2180
FF00
ENDCHAR
STARTCHAR guillemotright
ENCODING 187
SWIDTH 891 0
DWIDTH 13 0
BBX 12 19 2 0
BITMAP
0010
0030
0030
0020
0020
0020
0060
7060
9060
9840
7040
1040
30C0
30C0
30C0
2080
2080
2180
FF00
ENDCHAR
STARTCHAR onequarter
ENCODING 188
SWIDTH 754 0
DWIDTH 11 0
BBX 11 12 0 0
BITMAP
1860
3460
3460
6840
6240
64C0
6AC0
52C0
61C0
E180
C080
C100
ENDCHAR
STARTCHAR onehalf
ENCODING 189
SWIDTH 754 0
DWIDTH 11 0
BBX 12 19 0 0
BITMAP
0010
0030
0030
0020
0020
0060
0060
1860
3460
3440
6840
62C0
64C0
6AC0
52C0
6180
C180
C180
C100
ENDCHAR
STARTCHAR threequarters
ENCODING 190
SWIDTH 891 0
DWIDTH 13 0
BBX 11 12 2 0
BITMAP
6260
B260
A660
6640
2A40
2B40
31C0
71C0
51C0
6180
6180
4180
ENDCHAR
STARTCHAR questiondown
ENCODING 191
SWIDTH 891 0
DWIDTH 13 0
BBX 12 18 2 0
BITMAP
0010
0030
0030
0030
0020
0020
6260
A260
A660
6640
2A40
2B40
31C0
71C0
61C0
6180
4180
4180
ENDCHAR
STARTCHAR Agrave
ENCODING 192
SWIDTH 822 0
DWIDTH 12 0
BBX 10 12 0 0
BITMAP
0F00
1080
20C0
3C40
10C0
10C0
30C0
3080
7080
B080
A180
C100
ENDCHAR
STARTCHAR Aacute
ENCODING 193
SWIDTH 822 0
DWIDTH 12 0
BBX 11 12 1 0
BITMAP
3020
4860
4860
3840
1840
1840
18C0
10C0
78C0
B480
B380
6300
ENDCHAR
STARTCHAR Acircumflex
ENCODING 194
SWIDTH 685 0
DWIDTH 10 0
BBX 9 12 1 0
BITMAP
1880
2980
6980
7100
4100
3900
4300
C300
C300
8200
C600
7800
ENDCHAR
STARTCHAR Atilde
ENCODING 195
SWIDTH 685 0
DWIDTH 10 0
BBX 9 12 2 0
BITMAP
3980
4E00
8400
E000
1C00
0C00
0C00
0800
3800
5800
5000
6000
ENDCHAR
STARTCHAR Adiaeresis
ENCODING 196
SWIDTH 754 0
DWIDTH 11 0
BBX 9 17 1 -5
BITMAP
1E00
2300
4180
4180
F980
6180
6180
6100
6100
FB00
4B00
3300
0200
0200
0200
0200
0200
ENDCHAR
STARTCHAR Aring
ENCODING 197
SWIDTH 754 0
DWIDTH 11 0
BBX 9 12 1 0
BITMAP
1E00
6300
8180
1D80
3380
6100
C100
C100
F300
8B00
8A00
7200
ENDCHAR
STARTCHAR AE
ENCODING 198
SWIDTH 822 0
DWIDTH 12 0
BBX 10 17 0 -5
BITMAP
0F00
1080
20C0
3C40
10C0
10C0
30C0
3080
7080
B080
A180
C180
0180
0100
0100
0100
0200
ENDCHAR
STARTCHAR Ccedilla
ENCODING 199
SWIDTH 685 0
DWIDTH 10 0
BBX 8 12 2 0
BITMAP
3C
47
83
03
03
03
02
06
1E
16
24
18
ENDCHAR
STARTCHAR Egrave
ENCODING 200
SWIDTH 754 0
DWIDTH 11 0
BBX 11 13 1 0
BITMAP
0020
1E60
6340
4180
9980
A780
E580
F900
6100
4100
C300
C300
C300
ENDCHAR
STARTCHAR Eacute
ENCODING 201
SWIDTH 891 0
DWIDTH 13 0
BBX 11 12 1 0
BITMAP
3020
2860
4860
3860
1840
1E40
1A40
18C0
17C0
30C0
3080
FF00
ENDCHAR
STARTCHAR Ecircumflex
ENCODING 202
SWIDTH 891 0
DWIDTH 13 0
BBX 12 13 2 0
BITMAP
0030
1F30
63E0
81C0
9E80
2180
6180
4180
C180
E100
9100
9300
6300
ENDCHAR
STARTCHAR Ediaeresis
ENCODING 203
SWIDTH 960 0
DWIDTH 14 0
BBX 11 12 2 0
BITMAP
60C0
A120
A120
61C0
22C0
2C80
3180
6180
6180
4180
4100
4300
ENDCHAR
STARTCHAR Igrave
ENCODING 204
SWIDTH 891 0
DWIDTH 13 0
BBX 13 12 2 0
BITMAP
40F8
6330
A5E0
6440
4CC0
4AC0
52C0
52C0
6380
6380
C380
C180
ENDCHAR
STARTCHAR Iacute
ENCODING 205
SWIDTH 754 0
DWIDTH 11 0
BBX 9 12 2 0
BITMAP
3E00
4300
8180
A180
5180
D180
E300
8300
8300
8300
8400
7800
ENDCHAR
STARTCHAR Icircumflex
ENCODING 206
SWIDTH 754 0
DWIDTH 11 0
BBX 10 12 1 0
BITMAP
1EC0
2380
4700
3D00
0100
3300
CB00
F300
8200
8200
C400
3800
ENDCHAR
STARTCHAR Idiaeresis
ENCODING 207
SWIDTH 822 0
DWIDTH 12 0
BBX 9 12 1 0
BITMAP
0380
0780
6580
9500
8900
9300
E300
0300
0300
0200
0200
0600
ENDCHAR
STARTCHAR ETH
ENCODING 208
SWIDTH 685 0
DWIDTH 10 0
BBX 10 10 0 0
BITMAP
1C40
37C0
1E00
0000
0000
0000
7980
4D80
CF00
7C00
ENDCHAR
STARTCHAR Ntilde
ENCODING 209
SWIDTH 0 0
DWIDTH 0 0
BBX 8 4 -5 14
BITMAP
61
51
96
78
ENDCHAR
STARTCHAR Ograve
ENCODING 210
SWIDTH 548 0
DWIDTH 8 0
BBX 6 12 2 0
BITMAP
70
8C
0C
0C
0C
08
08
18
18
18
18
10
ENDCHAR
STARTCHAR Oacute
ENCODING 211
SWIDTH 548 0
DWIDTH 8 0
BBX 11 19 -3 0
BITMAP
7000
9000
9000
9000
6000
0000
0000
0380
0460
0060
0060
0060
0040
0040
00C0
00C0
00C0
00C0
0080
ENDCHAR
STARTCHAR Ocircumflex
ENCODING 212
SWIDTH 0 0
DWIDTH 0 0
BBX 9 5 -8 14
BITMAP
1E00
6100
4080
FC80
0380
ENDCHAR
STARTCHAR Otilde
ENCODING 213
SWIDTH 0 0
DWIDTH 0 0
BBX 9 6 -9 13
BITMAP
0180
3F80
4180
FC80
8380
0080
ENDCHAR
STARTCHAR Odiaeresis
ENCODING 214
SWIDTH 0 0
DWIDTH 0 0
BBX 11 7 -9 13
BITMAP
00C0
0120
1F60
6080
FE40
03C0
0040
ENDCHAR
STARTCHAR multiply
ENCODING 215
SWIDTH 0 0
DWIDTH 0 0
BBX 9 7 -8 13
BITMAP
0480
0580
3F80
4100
FD00
8780
0080
ENDCHAR
STARTCHAR Ooblique
ENCODING 216
SWIDTH 0 0
DWIDTH 0 0
BBX 4 5 -7 -6
BITMAP
70
90
70
30
30
ENDCHAR
STARTCHAR Ugrave
ENCODING 217
SWIDTH 0 0
DWIDTH 0 0
BBX 6 5 -9 -6
BITMAP
64
94
EC
2C
38
ENDCHAR
STARTCHAR Uacute
ENCODING 218
SWIDTH 0 0
DWIDTH 0 0
BBX 2 2 -5 -4
BITMAP
C0
C0
ENDCHAR
STARTCHAR Ucircumflex
ENCODING 219
SWIDTH 411 0
DWIDTH 6 0
BBX 0 0 0 0
BITMAP
ENDCHAR
STARTCHAR Udiaeresis
ENCODING 220
SWIDTH 411 0
DWIDTH 6 0
BBX 6 3 1 -3
BITMAP
FC
FC
84
ENDCHAR
STARTCHAR ssharp
ENCODING 223
SWIDTH 891 0
DWIDTH 13 0
BBX 12 15 0 -1
BITMAP
0080
3FC0
0DF0
0DB0
0DB0
0D30
1960
1FC0
1B60
1B30
1B30
3220
3A40
FF80
0600
ENDCHAR
STARTCHAR agrave
ENCODING 224
SWIDTH 342 0
DWIDTH 5 0
BBX 4 12 0 0
BITMAP
10
30
30
20
60
60
60
60
60
90
90
60
ENDCHAR
STARTCHAR aacute
ENCODING 225
SWIDTH 754 0
DWIDTH 11 0
BBX 11 12 0 0
BITMAP
1040
30C0
30C0
2080
6180
6180
6180
6180
6180
9240
9240
6180
ENDCHAR
STARTCHAR acircumflex
ENCODING 226
SWIDTH 685 0
DWIDTH 10 0
BBX 8 19 3 0
BITMAP
38
DF
46
30
0C
0C
18
18
18
18
10
30
30
30
30
30
58
48
30
ENDCHAR
STARTCHAR atilde
ENCODING 227
SWIDTH 617 0
DWIDTH 9 0
BBX 6 19 3 0
BITMAP
78
58
BC
B8
58
18
18
18
30
30
30
30
30
20
20
60
50
50
20
ENDCHAR
STARTCHAR adiaeresis
ENCODING 228
SWIDTH 685 0
DWIDTH 10 0
BBX 6 20 3 0
BITMAP
C0
6C
54
54
DC
DC
68
08
08
08
08
08
08
10
10
10
10
28
28
10
ENDCHAR
STARTCHAR aring
ENCODING 229
SWIDTH 548 0
DWIDTH 8 0
BBX 6 17 2 -5
BITMAP
78
8C
0C
0C
0C
0C
08
08
18
18
18
10
10
30
30
30
30
ENDCHAR
STARTCHAR ae
ENCODING 230
SWIDTH 822 0
DWIDTH 12 0
BBX 9 16 1 -4
BITMAP
1B00
2580
4080
8080
9180
9180
6180
0100
0100
0100
0100
0300
0300
0300
0200
0200
ENDCHAR
STARTCHAR ccedilla
ENCODING 231
SWIDTH 0 0
DWIDTH 0 0
BBX 8 7 -7 14
BITMAP
01
02
3C
42
86
B2
4C
ENDCHAR
STARTCHAR egrave
ENCODING 232
SWIDTH 0 0
DWIDTH 0 0
BBX 2 3 -1 21
BITMAP
C0
C0
80
ENDCHAR
STARTCHAR eacute
ENCODING 233
SWIDTH 0 0
DWIDTH 0 0
BBX 7 6 -1 21
BITMAP
06
44
A4
E8
50
E0
ENDCHAR
STARTCHAR ecircumflex
ENCODING 234
SWIDTH 0 0
DWIDTH 0 0
BBX 7 6 -3 21
BITMAP
02
7A
5A
8C
AC
70
ENDCHAR
STARTCHAR ediaeresis
ENCODING 235
SWIDTH 0 0
DWIDTH 0 0
BBX 5 5 -2 21
BITMAP
30
20
F8
F8
60
ENDCHAR
STARTCHAR igrave
ENCODING 236
SWIDTH 0 0
DWIDTH 0 0
BBX 6 6 0 19
BITMAP
04
0C
70
90
90
60
ENDCHAR
STARTCHAR iacute
ENCODING 237
SWIDTH 0 0
DWIDTH 0 0
BBX 4 5 -4 13
BITMAP
70
90
90
90
60
ENDCHAR
STARTCHAR icircumflex
ENCODING 238
SWIDTH 0 0
DWIDTH 0 0
BBX 6 7 -3 14
BITMAP
1C
20
20
70
C0
80
E0
ENDCHAR
STARTCHAR idiaeresis
ENCODING 239
SWIDTH 822 0
DWIDTH 12 0
BBX 10 10 1 0
BITMAP
1E00
6180
4C40
9E40
BE40
BE40
9C80
4100
4200
3C00
ENDCHAR
STARTCHAR eth
ENCODING 240
SWIDTH 822 0
DWIDTH 12 0
BBX 9 9 1 0
BITMAP
0E00
3F00
3300
6180
C180
C180
C300
6600
3C00
ENDCHAR
STARTCHAR ntilde
ENCODING 241
SWIDTH 822 0
DWIDTH 12 0
BBX 9 8 1 0
BITMAP
0E00
3F00
6380
C080
9C80
9C80
C900
3600
ENDCHAR
STARTCHAR ograve
ENCODING 242
SWIDTH 1165 0
DWIDTH 17 0
BBX 14 13 1 0
BITMAP
7000
3000
3000
6000
6000
639C
67BC
6C44
CB44
CB4C
C688
E030
7FE0
ENDCHAR
STARTCHAR oacute
ENCODING 243
SWIDTH 1028 0
DWIDTH 15 0
BBX 12 9 1 0
BITMAP
0800
1CE0
37F0
6330
C210
8210
BA30
BC60
74C0
ENDCHAR
STARTCHAR ocircumflex
ENCODING 244
SWIDTH 1028 0
DWIDTH 15 0
BBX 13 13 1 0
BITMAP
0018
0018
0010
0020
01C0
0E00
3800
6380
45C0
C580
8600
C780
7860
ENDCHAR
STARTCHAR otilde
ENCODING 245
SWIDTH 1028 0
DWIDTH 15 0
BBX 14 13 1 0
BITMAP
000C
018C
0698
06F0
03C0
0E00
30E0
61E0
4140
C100
C080
63C0
3CE0
ENDCHAR
STARTCHAR odiaeresis
ENCODING 246
SWIDTH 822 0
DWIDTH 12 0
BBX 8 13 2 0
BITMAP
C0
60
20
20
20
38
66
03
63
E3
C6
44
38
ENDCHAR
STARTCHAR division
ENCODING 247
SWIDTH 1097 0
DWIDTH 16 0
BBX 13 13 1 0
BITMAP
0060
0070
0030
0018
0018
1C88
3DC8
6648
C250
8050
9C60
5CC0
3980
ENDCHAR
STARTCHAR oslash
ENCODING 248
SWIDTH 1028 0
DWIDTH 15 0
BBX 13 13 1 0
BITMAP
0010
0018
0018
0010
0030
3FE0
7FC0
C000
8080
B1C0
B9C0
6C80
6300
ENDCHAR
STARTCHAR ugrave
ENCODING 249
SWIDTH 822 0
DWIDTH 12 0
BBX 11 13 1 0
BITMAP
0060
0040
1F80
3000
3080
1F00
7000
C200
8700
8700
8200
4600
3C00
ENDCHAR
STARTCHAR uacute
ENCODING 250
SWIDTH 960 0
DWIDTH 14 0
BBX 12 12 1 0
BITMAP
01B0
03B0
75B0
D5B0
89A0
9920
6160
0360
0360
0360
0340
0240
ENDCHAR
STARTCHAR ucircumflex
ENCODING 251
SWIDTH 1645 0
DWIDTH 24 0
BBX 22 11 1 0
BITMAP
1F0000
310000
400000
400000
800000
804884
80CD88
80B6D8
C12270
430000
3C0000
ENDCHAR
STARTCHAR udiaeresis
ENCODING 252
SWIDTH 0 0
DWIDTH 0 0
BBX 4 5 -8 -12
BITMAP
70
90
70
30
30
ENDCHAR
STARTCHAR yacute
ENCODING 253
SWIDTH 0 0
DWIDTH 0 0
BBX 6 5 -10 -12
BITMAP
64
94
EC
2C
38
ENDCHAR
STARTCHAR thorn
ENCODING 254
SWIDTH 0 0
DWIDTH 0 0
BBX 2 2 -6 -10
BITMAP
C0
C0
ENDCHAR
ENDFONT
